<svg height="512" viewBox="0 0 64 64" width="512" xmlns="http://www.w3.org/2000/svg"><g id="flat"><path d="m9 40v-10h8v22h-14v-9z" fill="#f1997e"/><path d="m11 6h46a4 4 0 0 1 4 4v16a0 0 0 0 1 0 0h-54a0 0 0 0 1 0 0v-16a4 4 0 0 1 4-4z" fill="#e03e2a"/><path d="m7 26h54v4h-54z" fill="#2d75bb" transform="matrix(-1 0 0 -1 68 56)"/><path d="m9 46h-6v-3l6-3z" fill="#fcf05a"/><path d="m59 48v-18h-42v22h44v-4z" fill="#e03e2a"/><path d="m53 34h6v14h-6z" fill="#f1997e"/><path d="m9 34h8v6h-8z" fill="#4da6ea"/><path d="m21 34h8v6h-8z" fill="#f4f4e6"/><path d="m33 34h8v6h-8z" fill="#f4f4e6"/><path d="m45 34h8v6h-8z" fill="#f4f4e6"/><g fill="#fff69a"><path d="m11 10h8v6h-8z"/><path d="m23 10h8v6h-8z"/><path d="m35 10h8v6h-8z"/><path d="m47 10h8a2 2 0 0 1 2 2v4a0 0 0 0 1 0 0h-10a0 0 0 0 1 0 0v-6a0 0 0 0 1 0 0z"/></g><path d="m20 43h7v2h-7z" fill="#fcf05a"/><path d="m29 43h2v2h-2z" fill="#fcf05a"/><path d="m33 43h6v2h-6z" fill="#fcf05a"/><path d="m7 20h54v6h-54z" fill="#f1997e"/><path d="m6 35h-2v-5h5v2h-3z" fill="#f9bb4b"/><circle cx="17" cy="52" fill="#394d5c" r="6"/><circle cx="17" cy="52" fill="#fff69a" r="2"/><circle cx="47" cy="52" fill="#394d5c" r="6"/><circle cx="47" cy="52" fill="#fff69a" r="2"/></g></svg>