<svg id="Capa_1" enable-background="new 0 0 512.002 512.002" height="512" viewBox="0 0 512.002 512.002" width="512" xmlns="http://www.w3.org/2000/svg"><g><g><g><path d="m350.325 438.86h-188.648c-8.284 0-15-6.716-15-15s6.716-15 15-15h188.648c8.284 0 15 6.716 15 15s-6.716 15-15 15z" fill="#e4a353"/><path d="m350.325 408.86h-94.324v30h94.324c8.284 0 15-6.716 15-15s-6.716-15-15-15z" fill="#e2964a"/></g><path d="m363.034 512.002c-7.367 0-13.793-5.43-14.838-12.934l-24.104-173.14c-1.142-8.205 4.583-15.783 12.789-16.925 8.201-1.136 15.783 4.583 16.925 12.789l24.104 173.14c1.142 8.205-4.583 15.783-12.789 16.925-.701.097-1.398.145-2.087.145z" fill="#e8b36a"/><path d="m148.968 512.002c-.689 0-1.386-.047-2.087-.146-8.205-1.142-13.931-8.72-12.789-16.925l24.105-173.14c1.143-8.205 8.72-13.931 16.925-12.789 8.205 1.143 13.931 8.72 12.789 16.925l-24.105 173.14c-1.045 7.505-7.472 12.935-14.838 12.935z" fill="#ecc084"/><g><path d="m256.001 512c-8.284 0-15-6.716-15-15v-482c0-8.284 6.716-15 15-15s15 6.716 15 15v482c0 8.284-6.716 15-15 15z" fill="#ecc084"/><path d="m256.001 0v512c8.284 0 15-6.716 15-15v-482c0-8.284-6.716-15-15-15z" fill="#e4a353"/></g></g><g><g><path d="m376.642 338.86h-242.623c-8.284 0-15-6.716-15-15v-275.158c0-8.284 6.716-15 15-15h242.622c8.284 0 15 6.716 15 15v275.158c.001 8.284-6.715 15-14.999 15z" fill="#bcfbff"/><path d="m376.642 33.702h-120.636v305.158h120.635c8.284 0 15-6.716 15-15v-275.158c.001-8.284-6.715-15-14.999-15z" fill="#6daaf9"/></g><g><path d="m376.661 338.86h-242.642c-8.284 0-15-6.716-15-15v-99.34c0-8.284 6.716-15 15-15s15 6.716 15 15c0 13.711 11.413 24.865 25.441 24.865s25.44-11.154 25.44-24.865c0-8.284 6.716-15 15-15s15 6.716 15 15c0 13.711 11.412 24.865 25.44 24.865s25.441-11.154 25.441-24.865c0-8.284 6.716-15 15-15s15 6.716 15 15c0 13.711 11.413 24.865 25.44 24.865 14.028 0 25.44-11.154 25.44-24.865 0-8.284 6.716-15 15-15s15 6.716 15 15v99.34c0 8.284-6.716 15-15 15z" fill="#0052be"/><path d="m376.661 209.52c-8.284 0-15 6.716-15 15 0 13.711-11.412 24.865-25.44 24.865s-25.44-11.154-25.44-24.865c0-8.284-6.716-15-15-15s-15 6.716-15 15c0 13.493-11.054 24.501-24.774 24.849v89.491h120.655c8.284 0 15-6.716 15-15v-99.34c-.001-8.284-6.717-15-15.001-15z" fill="#00337a"/></g><path d="m197.038 172.341h-78.019v-123.639c0-8.284 6.716-15 15-15h5.724c.69 0 1.379.047 2.062.143 24.538 3.405 43.439 23.47 45.823 47.705h8.606c25.402 0 46.629 20.787 46.194 46.185-.423 24.668-20.622 44.606-45.39 44.606z" fill="#fbf1df"/><path d="m349.655 132.401c-33.466 0-60.693-27.227-60.693-60.693 0-10.741 2.859-21.313 8.268-30.572 2.689-4.604 7.62-7.434 12.952-7.434h66.46c8.284 0 15 6.716 15 15v59.873c0 4.778-2.277 9.271-6.13 12.097-10.467 7.673-22.866 11.729-35.857 11.729z" fill="#ff9d21"/><path d="m296.538 188.202c-5.756 0-11.004-3.293-13.507-8.476-.613-1.269-1.741-2.333-3.018-2.847-.95-.383-1.784-.406-2.479-.07-7.46 3.603-16.428.476-20.031-6.983-3.603-7.46-.477-16.428 6.983-20.031 8.381-4.048 17.876-4.312 26.735-.744 1.856.747 3.633 1.643 5.316 2.675 1.683-1.031 3.46-1.927 5.316-2.675 8.858-3.567 18.354-3.304 26.735.743 7.46 3.603 10.586 12.571 6.984 20.031-3.603 7.46-12.572 10.585-20.031 6.984-.697-.336-1.531-.313-2.479.07-1.277.514-2.405 1.578-3.018 2.847-2.502 5.182-7.751 8.476-13.506 8.476z" fill="#f6e3c3"/></g><g><path d="m394.823 340.86h-277.644c-8.284 0-15-6.716-15-15s6.716-15 15-15h277.645c8.284 0 15 6.716 15 15-.001 8.284-6.717 15-15.001 15z" fill="#f2d8b0"/><path d="m394.823 310.86h-138.822v30h138.822c8.284 0 15-6.716 15-15s-6.716-15-15-15z" fill="#e8b36a"/></g></g></svg>