<?xml version="1.0" encoding="iso-8859-1"?>
<!-- Generator: Adobe Illustrator 19.0.0, SVG Export Plug-In . SVG Version: 6.00 Build 0)  -->
<svg version="1.1" id="Capa_1" xmlns="http://www.w3.org/2000/svg" xmlns:xlink="http://www.w3.org/1999/xlink" x="0px" y="0px"
	 viewBox="0 0 512 512" style="enable-background:new 0 0 512 512;" xml:space="preserve">
<path style="fill:#5C5E70;" d="M512,256c0,0.742,0,1.484-0.021,2.226c-0.658,78.555-36.707,148.657-92.974,195.175
	c-20.344,16.823-43.342,30.563-68.263,40.479c-4.127,1.651-8.307,3.197-12.539,4.618c-9.623,3.271-19.508,5.977-29.612,8.087
	c-2.999,0.637-6.019,1.202-9.049,1.724c-14.148,2.424-28.703,3.688-43.541,3.688c-1.651,0-3.291-0.01-4.932-0.052
	c-3.03-0.052-6.05-0.157-9.059-0.334c-16.624-0.888-32.83-3.365-48.473-7.293c-3.041-0.763-6.06-1.578-9.049-2.456
	c-2.382-0.69-4.765-1.421-7.116-2.184c-4.232-1.358-8.411-2.832-12.539-4.409c-9.916-3.772-19.539-8.15-28.818-13.092
	c-1.714-0.899-3.417-1.829-5.11-2.779c-1.327-0.742-2.644-1.494-3.95-2.267c-3.73-2.173-7.387-4.43-10.992-6.792
	c-13.416-8.788-25.966-18.798-37.47-29.884c-3.103-2.978-6.123-6.039-9.059-9.174c-2.894-3.072-5.705-6.207-8.432-9.414
	c-2.518-2.957-4.974-5.977-7.366-9.049c-11.577-14.931-21.556-31.169-29.644-48.473c-1.045-2.226-2.048-4.462-3.03-6.729
	c-0.334-0.773-0.669-1.546-0.993-2.33c-2.999-7.137-5.695-14.44-8.056-21.891c-2.748-8.673-5.047-17.544-6.865-26.582
	c-0.606-2.988-1.16-6.008-1.651-9.049C1.163,284.181,0.003,270.221,0.003,256c0-47.156,12.748-91.344,35.004-129.284
	C79.446,50.909,161.773,0.002,256.002,0.002c27.052,0,53.122,4.19,77.594,11.974c5.454,1.724,10.825,3.636,16.123,5.716
	c53.018,20.877,97.394,58.921,126.265,107.3C498.855,163.318,512,208.123,512,256z"/>
<g>
	<path style="fill:#797B89;" d="M512,256c0,0.742,0,1.484-0.021,2.226H394.188c-3.678,0-7.011-1.494-9.414-3.908
		c-2.414-2.403-3.908-5.736-3.908-9.414c0-7.356,5.966-13.322,13.322-13.322h40.5c3.678,0,7.011-1.494,9.414-3.908
		c2.414-2.403,3.908-5.736,3.908-9.414c0-7.356-5.966-13.322-13.322-13.322h-11.306c-3.678,0-7.011-1.494-9.414-3.908
		c-2.414-2.403-3.908-5.736-3.908-9.414c0-7.356,5.966-13.322,13.322-13.322H460.8c3.678,0,7.011-1.494,9.425-3.908
		c2.403-2.403,3.897-5.736,3.897-9.414c0-7.366-5.966-13.322-13.322-13.322h-82.16c-7.356,0-13.322-5.966-13.322-13.322v-0.01
		c0-7.356,5.966-13.322,13.322-13.322h97.342C498.855,163.318,512,208.123,512,256z"/>
	<path style="fill:#797B89;" d="M411.525,322.758L411.525,322.758c0-7.358-5.965-13.323-13.322-13.323H285.93
		c-7.358,0-13.322,5.965-13.322,13.323l0,0c0,7.358,5.965,13.322,13.322,13.322h36.316c7.358,0,13.322,5.965,13.322,13.323l0,0
		c0,7.358-5.965,13.323-13.322,13.323h-3.702c-7.358,0-13.322,5.965-13.322,13.322l0,0c0,7.358,5.965,13.322,13.322,13.322h107.604
		c7.358,0,13.322-5.965,13.322-13.322l0,0c0-7.358,5.965-13.322,13.323-13.322h3.702c7.358,0,13.323-5.965,13.323-13.323l0,0
		c0-7.358-5.965-13.323-13.323-13.323h-31.648C417.491,336.081,411.525,330.116,411.525,322.758z"/>
	<path style="fill:#797B89;" d="M372.82,78.588c0,7.366-5.966,13.333-13.322,13.333H232.93c-3.678,0-7.011-1.494-9.425-3.908
		c-2.403-2.403-3.897-5.747-3.897-9.425c0-7.356-5.966-13.322-13.322-13.322h-63.655c-3.678,0-7.011-1.494-9.425-3.897
		c-2.403-2.414-3.897-5.747-3.897-9.425c0-7.356,5.956-13.322,13.322-13.322h42.924c3.678,0,7.022-1.494,9.425-3.897
		c2.414-2.414,3.908-5.747,3.908-9.425c0-7.356,5.956-13.322,13.322-13.322h121.385c5.454,1.724,10.825,3.636,16.123,5.716
		c1.494,2.152,2.382,4.775,2.382,7.607c0,7.356-5.966,13.322-13.322,13.322h-42.935c-7.356,0-13.322,5.966-13.322,13.322
		c0,7.366,5.966,13.322,13.322,13.322h63.655c3.678,0,7.011,1.494,9.414,3.897C371.326,71.577,372.82,74.91,372.82,78.588z"/>
</g>
<path style="fill:#FF525D;" d="M419.005,126.716v326.685c-13.928,11.515-29.1,21.587-45.275,29.978
	c-35.244,18.286-75.274,28.62-117.728,28.62C114.617,511.999,0.003,397.384,0.003,256V126.716
	C0.003,126.716,419.005,126.716,419.005,126.716z"/>
<rect y="126.714" style="fill:#EF4152;" width="419.002" height="21.943"/>
<path style="fill:#FF525D;" d="M431.585,129.85H0V77.606h440.231v43.599C440.231,125.979,436.359,129.85,431.585,129.85z"/>
<rect y="59.84" style="fill:#EF4152;" width="440.234" height="22.291"/>
<path style="fill:#FF525D;" d="M490.58,66.285H0V46.432h490.58c5.483,0,9.926,4.444,9.926,9.926l0,0
	C500.506,61.841,496.062,66.285,490.58,66.285z"/>
<rect x="16.718" y="159.105" style="fill:#5C5E70;" width="320.165" height="55.379"/>
<g>
	<path style="fill:#FFD15C;" d="M58.28,184.54h6.411c1.097,0,1.729,1.054,1.729,2.193c0,0.97-0.549,2.109-1.729,2.109H58.28v8.478
		h11.937c1.097,0,1.729,1.139,1.729,2.446c0,1.139-0.549,2.361-1.729,2.361H55.202c-1.224,0-2.405-0.59-2.405-1.729v-27.375
		c0-1.139,1.182-1.729,2.405-1.729h15.016c1.182,0,1.729,1.224,1.729,2.363c0,1.308-0.632,2.446-1.729,2.446H58.28V184.54z"/>
	<path style="fill:#FFD15C;" d="M91.814,200.4l-9.07-16.956V200.4c0,1.139-1.392,1.729-2.742,1.729c-1.393,0-2.742-0.59-2.742-1.729
		v-27.375c0-1.181,1.35-1.729,2.742-1.729c1.982,0,2.784,0.422,4.091,2.91l8.142,15.734v-16.956c0-1.181,1.35-1.688,2.742-1.688
		c1.35,0,2.742,0.507,2.742,1.688v27.418c0,1.139-1.392,1.729-2.742,1.729C93.668,202.13,92.529,201.707,91.814,200.4z"/>
	<path style="fill:#FFD15C;" d="M114.463,176.103c-2.826,0-4.429,1.561-4.429,4.85v11.769c0,3.289,1.603,4.85,4.386,4.85
		c2.742,0,4.429-1.561,4.429-4.85v-2.489h-3.417c-1.097,0-1.688-1.054-1.688-2.151c0-1.054,0.59-2.151,1.688-2.151h7.171
		c1.097,0,1.729,0.843,1.729,1.771v5.02c0,7.044-4.345,9.659-9.913,9.659c-5.567,0-9.87-2.615-9.87-9.659v-11.768
		c0-7.044,4.345-9.659,9.702-9.659c5.821,0,10.081,3.037,10.081,8.099c0,2.11-0.928,2.615-2.742,2.615
		c-1.476,0-2.7-0.422-2.742-1.729C118.724,178.298,118.048,176.103,114.463,176.103z"/>
	<path style="fill:#FFD15C;" d="M133.189,202.13c-1.224,0-2.405-0.59-2.405-1.729v-27.418c0-1.181,1.35-1.688,2.742-1.688
		c1.35,0,2.742,0.507,2.742,1.688v24.339h10.292c1.097,0,1.645,1.181,1.645,2.404c0,1.181-0.549,2.404-1.645,2.404L133.189,202.13
		L133.189,202.13z"/>
	<path style="fill:#FFD15C;" d="M153.308,172.982c0-1.181,1.35-1.688,2.742-1.688c1.35,0,2.742,0.507,2.742,1.688V200.4
		c0,1.139-1.392,1.729-2.742,1.729c-1.393,0-2.742-0.59-2.742-1.729V172.982z"/>
	<path style="fill:#FFD15C;" d="M178.742,193.904c0-6.327-13.54-4.386-13.54-14.384c0-6.285,5.399-8.436,10.25-8.436
		c2.489,0,8.014,0.59,8.014,3.375c0,0.97-0.675,2.91-2.193,2.91c-1.308,0-2.278-1.603-5.821-1.603c-3.036,0-4.767,1.224-4.767,3.249
		c0,5.23,13.54,3.417,13.54,14.341c0,6.032-4.217,9.153-10.038,9.153c-5.526,0-9.744-2.784-9.744-5.231
		c0-1.181,1.096-2.953,2.404-2.953c1.729,0,2.868,3.248,7.171,3.248C176.549,197.574,178.742,196.435,178.742,193.904z"/>
	<path style="fill:#FFD15C;" d="M205.062,188.294h-9.491V200.4c0,1.139-1.392,1.729-2.742,1.729c-1.393,0-2.742-0.59-2.742-1.729
		v-27.418c0-1.181,1.35-1.688,2.742-1.688c1.35,0,2.742,0.507,2.742,1.688v11.009h9.491v-11.009c0-1.181,1.35-1.688,2.742-1.688
		c1.35,0,2.742,0.507,2.742,1.688V200.4c0,1.139-1.392,1.729-2.742,1.729c-1.392,0-2.742-0.59-2.742-1.729L205.062,188.294
		L205.062,188.294z"/>
	<path style="fill:#FFD15C;" d="M228.26,172.982c0-0.886,0.801-1.688,2.067-1.688h8.478c5.357,0,9.575,2.574,9.575,9.491v0.253
		c0,6.918-4.345,9.575-9.912,9.575h-4.725v9.786c0,1.139-1.392,1.729-2.742,1.729c-1.393,0-2.742-0.59-2.742-1.729V172.982z
		 M233.743,176.103v10.208h4.725c2.742,0,4.428-1.561,4.428-4.851v-0.507c0-3.289-1.688-4.85-4.428-4.85h-4.725V176.103z"/>
	<path style="fill:#FFD15C;" d="M268.499,172.982c0-1.181,1.35-1.688,2.742-1.688c1.35,0,2.742,0.507,2.742,1.688v19.741
		c0,7.044-4.471,9.659-10.123,9.659c-5.695,0-10.124-2.615-10.124-9.659v-19.741c0-1.181,1.35-1.688,2.742-1.688
		c1.35,0,2.742,0.507,2.742,1.688v19.741c0,3.289,1.729,4.85,4.64,4.85c2.91,0,4.639-1.561,4.639-4.85L268.499,172.982
		L268.499,172.982z"/>
	<path style="fill:#FFD15C;" d="M281.025,173.024c0-1.139,1.182-1.729,2.405-1.729h8.141c4.386,0,8.478,1.435,8.478,7.424
		c0,3.459-1.35,5.736-3.586,6.706c2.574,1.012,4.345,2.658,4.345,6.875v0.886c0,6.581-3.67,8.942-8.436,8.942h-8.942
		c-1.476,0-2.405-0.801-2.405-1.688v-27.417H281.025z M286.466,183.275h4.724c2.278,0,3.375-1.476,3.375-3.628
		c0-2.193-1.265-3.543-3.417-3.543h-4.682L286.466,183.275L286.466,183.275z M291.233,197.321c2.573,0,4.091-1.392,4.091-4.598
		v-0.675c0-3.29-1.519-4.471-4.091-4.471h-4.767v9.744H291.233z"/>
</g>
<g>
	<path style="fill:#EF4152;" d="M415.348,120.446L415.348,120.446c-3.174,0-5.747-2.573-5.747-5.747V94.846
		c0-3.174,2.573-5.747,5.747-5.747l0,0c3.174,0,5.747,2.573,5.747,5.747v19.853C421.094,117.873,418.522,120.446,415.348,120.446z"
		/>
	<path style="fill:#EF4152;" d="M379.996,120.446L379.996,120.446c-3.174,0-5.747-2.573-5.747-5.747V94.846
		c0-3.174,2.573-5.747,5.747-5.747l0,0c3.174,0,5.747,2.573,5.747,5.747v19.853C385.743,117.873,383.169,120.446,379.996,120.446z"
		/>
	<path style="fill:#EF4152;" d="M397.672,120.446L397.672,120.446c-3.174,0-5.747-2.573-5.747-5.747V94.846
		c0-3.174,2.573-5.747,5.747-5.747l0,0c3.174,0,5.747,2.573,5.747,5.747v19.853C403.419,117.873,400.845,120.446,397.672,120.446z"
		/>
	<path style="fill:#EF4152;" d="M327.098,120.446L327.098,120.446c-3.174,0-5.747-2.573-5.747-5.747V94.846
		c0-3.174,2.573-5.747,5.747-5.747l0,0c3.174,0,5.747,2.573,5.747,5.747v19.853C332.845,117.873,330.271,120.446,327.098,120.446z"
		/>
	<path style="fill:#EF4152;" d="M291.746,120.446L291.746,120.446c-3.174,0-5.747-2.573-5.747-5.747V94.846
		c0-3.174,2.573-5.747,5.747-5.747l0,0c3.174,0,5.747,2.573,5.747,5.747v19.853C297.493,117.873,294.92,120.446,291.746,120.446z"/>
	<path style="fill:#EF4152;" d="M309.422,120.446L309.422,120.446c-3.174,0-5.747-2.573-5.747-5.747V94.846
		c0-3.174,2.573-5.747,5.747-5.747l0,0c3.174,0,5.747,2.573,5.747,5.747v19.853C315.169,117.873,312.596,120.446,309.422,120.446z"
		/>
	<path style="fill:#EF4152;" d="M238.849,120.446L238.849,120.446c-3.174,0-5.747-2.573-5.747-5.747V94.846
		c0-3.174,2.573-5.747,5.747-5.747l0,0c3.174,0,5.747,2.573,5.747,5.747v19.853C244.596,117.873,242.022,120.446,238.849,120.446z"
		/>
	<path style="fill:#EF4152;" d="M203.496,120.446L203.496,120.446c-3.174,0-5.747-2.573-5.747-5.747V94.846
		c0-3.174,2.573-5.747,5.747-5.747l0,0c3.174,0,5.747,2.573,5.747,5.747v19.853C209.243,117.873,206.67,120.446,203.496,120.446z"/>
	<path style="fill:#EF4152;" d="M221.172,120.446L221.172,120.446c-3.174,0-5.747-2.573-5.747-5.747V94.846
		c0-3.174,2.573-5.747,5.747-5.747l0,0c3.174,0,5.747,2.573,5.747,5.747v19.853C226.919,117.873,224.346,120.446,221.172,120.446z"
		/>
	<path style="fill:#EF4152;" d="M150.598,120.446L150.598,120.446c-3.174,0-5.747-2.573-5.747-5.747V94.846
		c0-3.174,2.573-5.747,5.747-5.747l0,0c3.174,0,5.747,2.573,5.747,5.747v19.853C156.345,117.873,153.773,120.446,150.598,120.446z"
		/>
	<path style="fill:#EF4152;" d="M115.246,120.446L115.246,120.446c-3.174,0-5.747-2.573-5.747-5.747V94.846
		c0-3.174,2.573-5.747,5.747-5.747l0,0c3.174,0,5.747,2.573,5.747,5.747v19.853C120.993,117.873,118.42,120.446,115.246,120.446z"/>
	<path style="fill:#EF4152;" d="M132.923,120.446L132.923,120.446c-3.174,0-5.747-2.573-5.747-5.747V94.846
		c0-3.174,2.573-5.747,5.747-5.747l0,0c3.174,0,5.747,2.573,5.747,5.747v19.853C138.67,117.873,136.096,120.446,132.923,120.446z"/>
	<path style="fill:#EF4152;" d="M62.349,120.446L62.349,120.446c-3.174,0-5.747-2.573-5.747-5.747V94.846
		c0-3.174,2.573-5.747,5.747-5.747l0,0c3.174,0,5.747,2.573,5.747,5.747v19.853C68.096,117.873,65.522,120.446,62.349,120.446z"/>
	<path style="fill:#EF4152;" d="M26.997,120.446L26.997,120.446c-3.174,0-5.747-2.573-5.747-5.747V94.846
		c0-3.174,2.573-5.747,5.747-5.747l0,0c3.174,0,5.747,2.573,5.747,5.747v19.853C32.744,117.873,30.17,120.446,26.997,120.446z"/>
	<path style="fill:#EF4152;" d="M44.672,120.446L44.672,120.446c-3.174,0-5.747-2.573-5.747-5.747V94.846
		c0-3.174,2.573-5.747,5.747-5.747l0,0c3.174,0,5.747,2.573,5.747,5.747v19.853C50.419,117.873,47.847,120.446,44.672,120.446z"/>
	<path style="fill:#EF4152;" d="M373.73,242.109v241.27c-4.681,2.424-9.446,4.712-14.284,6.854
		c-31.905,14.113-67.234,21.901-104.41,21.763C113.694,511.475,0.003,395.283,0.003,253.94v-19.255h366.301
		C370.406,234.684,373.73,238.008,373.73,242.109z"/>
</g>
<path style="fill:#5C5E70;" d="M359.446,248.968v241.265c-31.629,13.991-66.622,21.765-103.444,21.765
	C114.617,511.998,0.003,397.384,0.003,256v-7.032L359.446,248.968L359.446,248.968z"/>
<g>
	<path style="fill:#EF4152;" d="M308.591,240.264v266.322c-2.999,0.637-6.019,1.202-9.049,1.724V240.264L308.591,240.264
		L308.591,240.264z"/>
	<path style="fill:#EF4152;" d="M251.07,240.264v271.682c-3.03-0.052-6.05-0.157-9.059-0.334V240.264L251.07,240.264L251.07,240.264
		z"/>
	<path style="fill:#EF4152;" d="M193.538,240.264v264.055c-3.041-0.763-6.06-1.578-9.049-2.456V240.264H193.538z"/>
	<path style="fill:#EF4152;" d="M136.017,240.264v241.913c-1.714-0.899-3.417-1.829-5.11-2.779c-1.327-0.742-2.644-1.494-3.95-2.267
		V240.264L136.017,240.264L136.017,240.264z"/>
	<path style="fill:#EF4152;" d="M78.495,240.264v200.191c-3.103-2.978-6.123-6.039-9.059-9.174V240.264L78.495,240.264
		L78.495,240.264z"/>
	<path style="fill:#EF4152;" d="M20.964,240.264v117.352c-0.334-0.773-0.669-1.546-0.993-2.33
		c-2.999-7.137-5.695-14.44-8.056-21.891v-93.131L20.964,240.264L20.964,240.264z"/>
	<path style="fill:#EF4152;" d="M369.55,470.338v9.059H130.907c-5.089-2.853-10.073-5.872-14.942-9.059H369.55z"/>
	<path style="fill:#EF4152;" d="M369.55,412.817v9.049H61.004c-2.518-2.957-4.974-5.977-7.366-9.049H369.55z"/>
	<path style="fill:#EF4152;" d="M369.55,355.286v9.059H23.994c-1.4-2.988-2.738-6.008-4.023-9.059H369.55z"/>
	<path style="fill:#EF4152;" d="M369.55,297.764v9.049H5.05c-0.606-2.988-1.16-6.008-1.651-9.049H369.55z"/>
</g>
<g>
	<path style="fill:#797B89;" d="M346.007,275.786h-3.077c-2.612,0-4.73-2.118-4.73-4.73v-10.043c0-2.612,2.118-4.73,4.73-4.73h3.077
		c2.612,0,4.73,2.118,4.73,4.73v10.043C350.739,273.668,348.621,275.786,346.007,275.786z"/>
	<path style="fill:#797B89;" d="M230.432,275.786h-3.077c-2.612,0-4.73-2.118-4.73-4.73v-10.043c0-2.612,2.118-4.73,4.73-4.73h3.077
		c2.612,0,4.73,2.118,4.73,4.73v10.043C235.162,273.668,233.044,275.786,230.432,275.786z"/>
	<path style="fill:#797B89;" d="M114.856,275.786h-3.077c-2.612,0-4.73-2.118-4.73-4.73v-10.043c0-2.612,2.118-4.73,4.73-4.73h3.077
		c2.612,0,4.73,2.118,4.73,4.73v10.043C119.586,273.668,117.468,275.786,114.856,275.786z"/>
	<path style="fill:#797B89;" d="M288.22,275.786h-3.077c-2.612,0-4.73-2.118-4.73-4.73v-10.043c0-2.612,2.118-4.73,4.73-4.73h3.077
		c2.612,0,4.73,2.118,4.73,4.73v10.043C292.95,273.668,290.832,275.786,288.22,275.786z"/>
	<path style="fill:#797B89;" d="M172.643,275.786h-3.077c-2.612,0-4.73-2.118-4.73-4.73v-10.043c0-2.612,2.118-4.73,4.73-4.73h3.077
		c2.612,0,4.73,2.118,4.73,4.73v10.043C177.373,273.668,175.255,275.786,172.643,275.786z"/>
	<path style="fill:#797B89;" d="M57.067,275.786H53.99c-2.612,0-4.73-2.118-4.73-4.73v-10.043c0-2.612,2.118-4.73,4.73-4.73h3.077
		c2.612,0,4.73,2.118,4.73,4.73v10.043C61.797,273.668,59.68,275.786,57.067,275.786z"/>
	<path style="fill:#797B89;" d="M346.007,388.949h-3.077c-2.612,0-4.73-2.118-4.73-4.73v-10.043c0-2.612,2.118-4.73,4.73-4.73h3.077
		c2.612,0,4.73,2.118,4.73,4.73v10.043C350.739,386.831,348.621,388.949,346.007,388.949z"/>
	<path style="fill:#797B89;" d="M230.432,388.949h-3.077c-2.612,0-4.73-2.118-4.73-4.73v-10.043c0-2.612,2.118-4.73,4.73-4.73h3.077
		c2.612,0,4.73,2.118,4.73,4.73v10.043C235.162,386.831,233.044,388.949,230.432,388.949z"/>
	<path style="fill:#797B89;" d="M114.856,388.949h-3.077c-2.612,0-4.73-2.118-4.73-4.73v-10.043c0-2.612,2.118-4.73,4.73-4.73h3.077
		c2.612,0,4.73,2.118,4.73,4.73v10.043C119.586,386.831,117.468,388.949,114.856,388.949z"/>
	<path style="fill:#797B89;" d="M288.22,388.949h-3.077c-2.612,0-4.73-2.118-4.73-4.73v-10.043c0-2.612,2.118-4.73,4.73-4.73h3.077
		c2.612,0,4.73,2.118,4.73,4.73v10.043C292.95,386.831,290.832,388.949,288.22,388.949z"/>
	<path style="fill:#797B89;" d="M172.643,388.949h-3.077c-2.612,0-4.73-2.118-4.73-4.73v-10.043c0-2.612,2.118-4.73,4.73-4.73h3.077
		c2.612,0,4.73,2.118,4.73,4.73v10.043C177.373,386.831,175.255,388.949,172.643,388.949z"/>
	<path style="fill:#797B89;" d="M57.067,388.949H53.99c-2.612,0-4.73-2.118-4.73-4.73v-10.043c0-2.612,2.118-4.73,4.73-4.73h3.077
		c2.612,0,4.73,2.118,4.73,4.73v10.043C61.797,386.831,59.68,388.949,57.067,388.949z"/>
	<path style="fill:#797B89;" d="M346.007,446.385h-3.077c-2.612,0-4.73-2.118-4.73-4.73v-10.043c0-2.612,2.118-4.73,4.73-4.73h3.077
		c2.612,0,4.73,2.118,4.73,4.73v10.043C350.739,444.267,348.621,446.385,346.007,446.385z"/>
	<path style="fill:#797B89;" d="M230.432,446.385h-3.077c-2.612,0-4.73-2.118-4.73-4.73v-10.043c0-2.612,2.118-4.73,4.73-4.73h3.077
		c2.612,0,4.73,2.118,4.73,4.73v10.043C235.162,444.267,233.044,446.385,230.432,446.385z"/>
	<path style="fill:#797B89;" d="M114.856,446.385h-3.077c-2.612,0-4.73-2.118-4.73-4.73v-10.043c0-2.612,2.118-4.73,4.73-4.73h3.077
		c2.612,0,4.73,2.118,4.73,4.73v10.043C119.586,444.267,117.468,446.385,114.856,446.385z"/>
	<path style="fill:#797B89;" d="M288.22,446.385h-3.077c-2.612,0-4.73-2.118-4.73-4.73v-10.043c0-2.612,2.118-4.73,4.73-4.73h3.077
		c2.612,0,4.73,2.118,4.73,4.73v10.043C292.95,444.267,290.832,446.385,288.22,446.385z"/>
	<path style="fill:#797B89;" d="M172.643,446.385h-3.077c-2.612,0-4.73-2.118-4.73-4.73v-10.043c0-2.612,2.118-4.73,4.73-4.73h3.077
		c2.612,0,4.73,2.118,4.73,4.73v10.043C177.373,444.267,175.255,446.385,172.643,446.385z"/>
	<path style="fill:#797B89;" d="M350.742,493.149v0.731c-4.127,1.651-8.307,3.197-12.539,4.618v-5.35
		c0-2.612,2.111-4.733,4.723-4.733h3.082C348.621,488.415,350.742,490.536,350.742,493.149z"/>
	<path style="fill:#797B89;" d="M230.432,507.921h-3.077c-2.612,0-4.73-2.118-4.73-4.73v-10.043c0-2.612,2.118-4.73,4.73-4.73h3.077
		c2.612,0,4.73,2.118,4.73,4.73v10.043C235.162,505.803,233.044,507.921,230.432,507.921z"/>
	<path style="fill:#797B89;" d="M288.22,507.921h-3.077c-2.612,0-4.73-2.118-4.73-4.73v-10.043c0-2.612,2.118-4.73,4.73-4.73h3.077
		c2.612,0,4.73,2.118,4.73,4.73v10.043C292.95,505.803,290.832,507.921,288.22,507.921z"/>
	<path style="fill:#797B89;" d="M177.373,493.149v6.531c-4.232-1.358-8.411-2.832-12.539-4.409v-2.121
		c0-2.612,2.121-4.733,4.733-4.733h3.072C175.252,488.415,177.373,490.536,177.373,493.149z"/>
	<path style="fill:#797B89;" d="M346.007,331.514h-3.077c-2.612,0-4.73-2.118-4.73-4.73v-10.043c0-2.612,2.118-4.73,4.73-4.73h3.077
		c2.612,0,4.73,2.118,4.73,4.73v10.043C350.739,329.396,348.621,331.514,346.007,331.514z"/>
	<path style="fill:#797B89;" d="M230.432,331.514h-3.077c-2.612,0-4.73-2.118-4.73-4.73v-10.043c0-2.612,2.118-4.73,4.73-4.73h3.077
		c2.612,0,4.73,2.118,4.73,4.73v10.043C235.162,329.396,233.044,331.514,230.432,331.514z"/>
	<path style="fill:#797B89;" d="M114.856,331.514h-3.077c-2.612,0-4.73-2.118-4.73-4.73v-10.043c0-2.612,2.118-4.73,4.73-4.73h3.077
		c2.612,0,4.73,2.118,4.73,4.73v10.043C119.586,329.396,117.468,331.514,114.856,331.514z"/>
	<path style="fill:#797B89;" d="M288.22,331.514h-3.077c-2.612,0-4.73-2.118-4.73-4.73v-10.043c0-2.612,2.118-4.73,4.73-4.73h3.077
		c2.612,0,4.73,2.118,4.73,4.73v10.043C292.95,329.396,290.832,331.514,288.22,331.514z"/>
	<path style="fill:#797B89;" d="M172.643,331.514h-3.077c-2.612,0-4.73-2.118-4.73-4.73v-10.043c0-2.612,2.118-4.73,4.73-4.73h3.077
		c2.612,0,4.73,2.118,4.73,4.73v10.043C177.373,329.396,175.255,331.514,172.643,331.514z"/>
	<path style="fill:#797B89;" d="M57.067,331.514H53.99c-2.612,0-4.73-2.118-4.73-4.73v-10.043c0-2.612,2.118-4.73,4.73-4.73h3.077
		c2.612,0,4.73,2.118,4.73,4.73v10.043C61.797,329.396,59.68,331.514,57.067,331.514z"/>
</g>
<g>
	<path style="fill:#FF6E7C;" d="M367.196,58.449h95.956c3.319,0,6.008-2.69,6.008-6.008l0,0c0-3.319-2.69-6.008-6.008-6.008h-95.956
		c-3.319,0-6.008,2.69-6.008,6.008l0,0C361.188,55.759,363.877,58.449,367.196,58.449z"/>
	<path style="fill:#FF6E7C;" d="M401.217,240.957h-6.22c-2.899,0-5.249-2.35-5.249-5.248v-71.004c0-2.899,2.35-5.248,5.249-5.248
		h6.22c2.898,0,5.248,2.35,5.248,5.248v71.004C406.466,238.607,404.116,240.957,401.217,240.957z"/>
</g>
<g>
</g>
<g>
</g>
<g>
</g>
<g>
</g>
<g>
</g>
<g>
</g>
<g>
</g>
<g>
</g>
<g>
</g>
<g>
</g>
<g>
</g>
<g>
</g>
<g>
</g>
<g>
</g>
<g>
</g>
</svg>
