<svg height="512" viewBox="0 0 44 58" width="512" xmlns="http://www.w3.org/2000/svg"><g id="011---British-Man" fill="none"><path id="Shape" d="m34.04 39h-5.04v-4.15c-2.35 2.69-2.62 5.15-5.44 5.15h-3.12c-2.82 0-3.09-2.46-5.44-5.15v4.15h-5c-5.5228475 0-10 4.4771525-10 10v7c.0032948 1.1032019.89679813 1.9967052 2 2h40c1.1032019-.0032948 1.9967052-.8967981 2-2v-7c.0000441-5.5072642-4.4527799-9.9779709-9.96-10z" fill="#393f4a"/><path id="Shape" d="m29 34.85v4.15s-1.65 5-7 5-7-5-7-5v-4.15z" fill="#f9c795"/><path id="Shape" d="m24.98 46.28v.01c-.073691 1.0225315-.6662843 1.9359556-1.57 2.42-.9002423.3866382-1.9197577.3866382-2.82 0-.9037157-.4840444-1.496309-1.3974685-1.57-2.42v-.01c.7871641-.9971169 1.8117214-1.7810064 2.98-2.28 1.1682786.4989936 2.1928359 1.2828831 2.98 2.28z" fill="#e64c3c"/><path id="Shape" d="m22 54v4h-8v-15s0 8.21 5.16 10.44c.8965484.384966 1.8644244.5758148 2.84.56z" fill="#805333"/><path id="Shape" d="m15 39c-.6203265 1.1120057-.9633554 2.3572004-1 3.63v15.37h-2l-3.91-8.5c-.13937964-.3126041-.10919853-.6747774.08-.96l1.29-1.86c.27167984-.3950089.21660794-.9287827-.13-1.26l-.9-.87c-.33633595-.317044-.40320888-.8269501-.16-1.22l2.69-4.33z" fill="#464f5d"/><path id="Shape" d="m30 43v15h-8v-4c.9755756.0158148 1.9434516-.175034 2.84-.56 5.16-2.23 5.16-10.44 5.16-10.44z" fill="#603e26"/><path id="Shape" d="m36.91 49.5-3.91 8.5h-3v-15.37c-.0366446-1.2727996-.3796735-2.5179943-1-3.63h5.04l2.69 4.33c.2432089.3930499.176336.902956-.16 1.22l-.9.87c-.3466079.3312173-.4016798.8649911-.13 1.26l1.29 1.86c.1891985.2852226.2193796.6473959.08.96z" fill="#464f5d"/><path id="Shape" d="m22 44c-1.1682786.4989936-2.1928359 1.2828831-2.98 2.28v.01c-.2205561.2752723-.4210712.5660192-.6.87-.133628.2297442-.3532172.3968418-.6102702.4643886-.257053.0675467-.5304211.0299853-.7597298-.1043886-1.8211753-.9638662-2.9854344-2.8304979-3.05-4.89.0366446-1.2727996.3796735-2.5179943 1-3.63 0 0 1.65 5 7 5z" fill="#fff"/><path id="Shape" d="m7 54v4h-2v-4c0-.5522847.44771525-1 1-1s1 .4477153 1 1z" fill="#2c2f38"/><path id="Shape" d="m30 42.63c-.0645656 2.0595021-1.2288247 3.9261338-3.05 4.89-.2293087.1343739-.5026768.1719353-.7597298.1043886-.257053-.0675468-.4766422-.2346444-.6102702-.4643886-.1789288-.3039808-.3794439-.5947277-.6-.87v-.01c-.7871641-.9971169-1.8117214-1.7810064-2.98-2.28 5.35 0 7-5 7-5 .6203265 1.1120057.9633554 2.3572004 1 3.63z" fill="#ecf0f1"/><path id="Shape" d="m30 42.63v.37s0 8.21-5.16 10.44c-.3040067-1.6237908-.7834852-3.2097581-1.43-4.73.9037157-.4840444 1.496309-1.3974685 1.57-2.42.2205561.2752723.4210712.5660192.6.87.133628.2297442.3532172.3968418.6102702.4643886.257053.0675467.5304211.0299853.7597298-.1043886 1.8211753-.9638662 2.9854344-2.8304979 3.05-4.89z" fill="#bdc3c7"/><path id="Shape" d="m24.84 53.44c-1.8197092.7467129-3.8602908.7467129-5.68 0 .3040067-1.6237908.7834852-3.2097581 1.43-4.73.9002423.3866382 1.9197577.3866382 2.82 0 .6465148 1.5202419 1.1259933 3.1062092 1.43 4.73z" fill="#c03a2b"/><path id="Shape" d="m20.59 48.71c-.6465148 1.5202419-1.1259933 3.1062092-1.43 4.73-5.16-2.23-5.16-10.44-5.16-10.44v-.37c.0645656 2.0595021 1.2288247 3.9261338 3.05 4.89.2293087.1343739.5026768.1719353.7597298.1043886.257053-.0675468.4766422-.2346444.6102702-.4643886.1789288-.3039808.3794439-.5947277.6-.87.073691 1.0225315.6662843 1.9359556 1.57 2.42z" fill="#ecf0f1"/><path id="Shape" d="m40 54v4h-2v-4c0-.5522847.4477153-1 1-1s1 .4477153 1 1z" fill="#2c2f38"/><path id="Shape" d="m35.76 18.64c.265118 1.2836947.2989824 2.6044052.1 3.9-.4711104 1.9473247-1.8358916 3.5568764-3.68 4.34h-20.36c-1.84410841-.7831236-3.20888963-2.3926753-3.68-4.34-.19898235-1.2955948-.16511798-2.6163053.1-3.9z" fill="#f9c795"/><path id="Shape" d="m32.18 26.88c.11 2.41.23 4.61-2.38 7.12-.2823691.2681332-.5494564.5519134-.8.85-2.35 2.69-2.62 5.15-5.44 5.15h-3.12c-2.82 0-3.09-2.46-5.44-5.15-.2505436-.2980866-.5176309-.5818668-.8-.85-2.61-2.51-2.49-4.71-2.38-7.12.02-.48.04-.96.04-1.45 0-1.81-.42-2.84-.67-5.24h21.62c-.25 2.4-.67 3.43-.67 5.24 0 .49.02.97.04 1.45z" fill="#fdd7ad"/><path id="Shape" d="m33 13.9c1.4038427-.5563225 2.7557692-1.2356321 4.04-2.03.7596009-.4822219 1.7518593-.3742775 2.39.26.5849731.5643953.7348915 1.4436462.37 2.17-1.27 2.49-5.41 7.7-17.8 7.7s-16.53-5.21-17.8-7.7c-.36489147-.7263538-.21497312-1.6056047.37-2.17.63814073-.6342775 1.63039908-.7422219 2.39-.26 1.28423082.7943679 2.63615729 1.4736775 4.04 2.03z" fill="#393f4a"/><path id="Shape" d="m33 11v4c0 1.66-4.92 3-11 3s-11-1.34-11-3v-4z" fill="#e64c3c"/><path id="Shape" d="m33 11c0 1.66-4.92 3-11 3s-11-1.34-11-3c0-6.07513225 4.9248678-11 11-11s11 4.92486775 11 11z" fill="#464f5d"/></g></svg>